<?xml version="1.0" encoding="utf-8"?>
<!-- Generator: Adobe Illustrator 27.2.0, SVG Export Plug-In . SVG Version: 6.00 Build 0)  -->
<svg version="1.1" id="Capa_1" xmlns="http://www.w3.org/2000/svg" xmlns:xlink="http://www.w3.org/1999/xlink" x="0px" y="0px"
	 viewBox="0 0 595.28 841.89" style="enable-background:new 0 0 595.28 841.89;" xml:space="preserve">
<style type="text/css">
	.st0{fill:#BF2918;}
</style>
<g>
	<path class="st0" d="M241.91,282.19v0.79h-56.1v-0.79l17-2.45c0.6-4.38,1.1-9.65,1.5-15.82c0.4-6.17,0.71-12.15,0.94-17.96
		c0.22-5.8,0.34-11.07,0.34-15.82v-22.31c0-6.28-0.21-13.01-0.64-20.21c-0.42-7.2-0.94-12.77-1.54-16.73l-17.6-2.93v-0.79h56.25
		v0.79l-19.47,2.93c-0.5,3.8-0.92,8.89-1.27,15.27c-0.35,6.38-0.52,11-0.52,13.84v20.41c3.4-2.48,7.22-5.68,11.46-9.61
		c4.24-3.93,9.01-8.53,14.31-13.8c10.74-10.81,18.7-19.51,23.89-26.1l-17.6-2.93v-0.79h42.77v0.79l-14.76,2.77
		c-1.25,0.9-3.35,2.74-6.29,5.54c-2.95,2.8-6.49,6.25-10.64,10.36c-4.15,4.11-8.64,8.54-13.48,13.29
		c-4.84,4.75-8.51,8.31-11.01,10.68c2.95,5.27,7.46,11.68,13.56,19.22l16.55,21.44c9.79,12.45,18.23,21.83,25.32,28.16l13.78,2.77
		v0.79h-52.43v-0.79l14.23-2.77c-3.05-5.38-7.03-11.52-11.95-18.43c-4.92-6.91-10.14-13.83-15.65-20.76
		c-5.52-6.93-10.57-12.98-15.17-18.15l-7.12,6.96v17.32c0,3.06,0.2,8.45,0.6,16.18c0.4,7.73,0.87,13.36,1.42,16.89L241.91,282.19z
		 M207.53,170.26v109.79h5.39V170.26H207.53z M232.7,216.21l-3.37,3.56l46.96,60.28h6.29L232.7,216.21z"/>
</g>
<g>
	<path d="M204.69,282.04v0.79H148.7v-0.79l16.97-2.46c0.6-4.39,1.1-9.68,1.49-15.87c0.4-6.19,0.71-12.19,0.93-18.01
		c0.22-5.82,0.34-11.11,0.34-15.87v-22.38c0-6.3-0.21-13.05-0.64-20.28c-0.42-7.22-0.93-12.81-1.53-16.78l-17.56-2.94v-0.79h56.13
		v0.79l-19.43,2.94c-0.5,3.81-0.92,8.92-1.27,15.31c-0.35,6.4-0.52,11.03-0.52,13.89v20.47c3.39-2.49,7.2-5.7,11.44-9.64
		c4.23-3.94,8.99-8.56,14.28-13.85c10.71-10.84,18.66-19.57,23.84-26.19l-17.56-2.94v-0.79h42.68v0.79l-14.73,2.78
		c-1.25,0.9-3.34,2.75-6.28,5.55c-2.94,2.8-6.48,6.27-10.61,10.4c-4.14,4.13-8.62,8.57-13.45,13.33c-4.83,4.76-8.5,8.33-10.99,10.71
		c2.94,5.29,7.45,11.72,13.53,19.28l16.52,21.5c9.77,12.49,18.19,21.9,25.26,28.25l13.75,2.78v0.79h-52.32v-0.79l14.2-2.78
		c-3.04-5.4-7.01-11.56-11.92-18.49c-4.91-6.93-10.12-13.87-15.62-20.83c-5.51-6.96-10.55-13.03-15.14-18.21l-7.1,6.98v17.38
		c0,3.07,0.2,8.48,0.6,16.23c0.4,7.75,0.87,13.4,1.42,16.94L204.69,282.04z M170.38,169.75V279.9h5.38V169.75H170.38z
		 M195.49,215.86l-3.36,3.57l46.86,60.47h6.28L195.49,215.86z"/>
</g>
<g>
	<path d="M123.8,320.8l-0.01,0.24l-17.84-0.39l0.01-0.24l5.42-0.62c0.22-1.31,0.41-2.9,0.57-4.75c0.16-1.85,0.3-3.65,0.4-5.4
		c0.1-1.74,0.17-3.33,0.2-4.76l0.13-6.72c0.04-1.89,0.01-3.92-0.08-6.09c-0.09-2.17-0.22-3.85-0.39-5.05l-5.58-1l0-0.24l17.89,0.39
		l0,0.24l-6.21,0.75c-0.18,1.14-0.35,2.67-0.49,4.59c-0.15,1.92-0.23,3.31-0.25,4.16l-0.12,6.14c1.09-0.72,2.33-1.66,3.7-2.82
		c1.37-1.15,2.92-2.5,4.63-4.06c3.48-3.18,6.06-5.75,7.75-7.7l-5.58-1l0-0.24l13.6,0.29l0,0.24l-4.71,0.73
		c-0.4,0.26-1.08,0.8-2.03,1.62c-0.95,0.82-2.1,1.84-3.44,3.05c-1.34,1.21-2.8,2.51-4.36,3.91c-1.57,1.4-2.76,2.44-3.56,3.14
		c0.91,1.61,2.3,3.57,4.2,5.88l5.14,6.57c3.04,3.82,5.67,6.7,7.88,8.65l4.37,0.93l-0.01,0.24l-16.67-0.36l0.01-0.24l4.54-0.74
		c-0.94-1.64-2.17-3.52-3.69-5.63c-1.53-2.11-3.14-4.23-4.86-6.36c-1.71-2.13-3.29-3.98-4.72-5.57l-2.3,2.05l-0.1,5.22
		c-0.02,0.92,0.01,2.55,0.1,4.87c0.08,2.33,0.2,4.03,0.35,5.09L123.8,320.8z M113.52,286.87l-0.64,33.06l1.72,0.04l0.64-33.06
		L113.52,286.87z M121.26,300.88l-1.09,1.05l14.58,18.47l2,0.04L121.26,300.88z"/>
	<path d="M166.52,286.73l9.84,24.82c1.27,3.24,2.76,6.45,4.48,9.65l3.94,0.92l-0.01,0.24L167.95,322l0.01-0.24l6.49-0.69
		c-0.21-1.58-0.61-3.3-1.22-5.16c-0.61-1.86-1.29-3.49-2.04-4.87l-14.93-0.32c-0.67,1.59-1.2,2.9-1.61,3.92
		c-0.41,1.03-0.8,2.09-1.18,3.19c-0.38,1.1-0.63,2.03-0.76,2.77l6.22,0.97l-0.01,0.24l-13.31-0.29l0.01-0.24l4.4-0.74
		c1.1-1.82,2.12-3.83,3.05-6.03l11.57-27.82L166.52,286.73z M163.86,293.36c-0.44,0.83-1.04,2.05-1.77,3.66
		c-0.74,1.6-1.41,3.11-2.01,4.51c-0.6,1.4-1.22,2.89-1.87,4.47c-0.65,1.58-1.08,2.63-1.3,3.13c0.93,0.15,2.02,0.26,3.27,0.33
		s2.43,0.12,3.56,0.15c2.78,0.06,5.06,0,6.84-0.19c-0.57-1.81-1.54-4.38-2.92-7.72C166.28,298.36,165.01,295.58,163.86,293.36z
		 M164.28,291.37l11.79,29.87l1.59,0.03l-12.56-31.89L164.28,291.37z"/>
	<path d="M206.62,287.45c3.38,0.07,6.3,0.7,8.76,1.88s4.45,2.7,6,4.56c1.54,1.86,2.66,3.83,3.36,5.9c0.7,2.07,1.03,4.05,0.99,5.94
		c-0.04,2.16-0.5,4.27-1.37,6.33c-0.87,2.06-2.14,3.94-3.8,5.62c-1.66,1.69-3.71,3.02-6.13,4c-2.43,0.98-5.12,1.44-8.07,1.38
		c-4.27-0.09-7.88-1.1-10.81-3.01c-2.94-1.91-5.08-4.25-6.44-7.01c-1.36-2.76-2.01-5.44-1.97-8.05c0.04-2.3,0.54-4.52,1.48-6.66
		c0.94-2.14,2.28-4.05,4.02-5.72c1.74-1.67,3.81-2.96,6.21-3.88C201.26,287.82,203.85,287.39,206.62,287.45z M205.63,288.36
		l0.01-0.24c-2.23-0.03-4.4,0.4-6.53,1.29c-2.13,0.89-4.01,2.12-5.65,3.69c-1.64,1.57-2.92,3.37-3.86,5.4
		c-0.94,2.03-1.43,4.17-1.47,6.42c-0.05,2.76,0.65,5.47,2.1,8.11c1.45,2.64,3.48,4.81,6.11,6.51c2.62,1.69,5.52,2.62,8.69,2.78
		l0.01-0.26c-3.08-0.34-5.78-1.36-8.11-3.06c-2.33-1.7-4.09-3.79-5.28-6.26c-1.18-2.47-1.75-5.02-1.7-7.64
		c0.04-2.16,0.44-4.22,1.19-6.19c0.75-1.97,1.82-3.72,3.2-5.24c1.38-1.53,3.03-2.75,4.97-3.68
		C201.23,289.06,203.34,288.51,205.63,288.36z M206.74,289.12c-2.46-0.05-4.75,0.54-6.86,1.78c-2.11,1.24-3.81,3.06-5.08,5.47
		c-1.28,2.4-1.95,5.26-2.01,8.56c-0.07,3.56,0.54,6.58,1.84,9.06c1.29,2.48,2.98,4.34,5.06,5.57c2.08,1.23,4.24,1.87,6.48,1.91
		c1.82,0.04,3.56-0.27,5.21-0.93c1.65-0.66,3.13-1.65,4.44-2.97c1.31-1.32,2.35-2.94,3.11-4.89c0.76-1.95,1.16-4.12,1.21-6.54
		c0.06-3.3-0.27-5.95-0.99-7.93c-0.73-1.99-1.81-3.73-3.26-5.24c-1.23-1.28-2.64-2.23-4.22-2.86
		C210.08,289.48,208.43,289.16,206.74,289.12z M207.97,288.17l-0.01,0.24c1.54,0.15,3.08,0.54,4.63,1.18
		c1.54,0.65,2.98,1.63,4.32,2.95c1.33,1.32,2.39,3.09,3.17,5.3c0.78,2.21,1.14,4.85,1.08,7.93c-0.04,2.02-0.32,3.94-0.84,5.77
		c-0.52,1.83-1.33,3.52-2.43,5.05c-1.1,1.53-2.53,2.79-4.28,3.77c-1.75,0.98-3.84,1.56-6.25,1.75l-0.01,0.26
		c2.03-0.05,3.97-0.45,5.81-1.19c1.84-0.74,3.48-1.82,4.94-3.24c1.45-1.42,2.61-3.17,3.47-5.25c0.87-2.08,1.32-4.4,1.37-6.98
		c0.05-2.81-0.33-5.3-1.14-7.47c-0.82-2.17-1.95-3.98-3.4-5.45c-1.45-1.46-3.07-2.58-4.86-3.35
		C211.77,288.69,209.9,288.26,207.97,288.17z"/>
	<path d="M233.36,288.53l20.67,0.45c1.25,0.03,2.41,0.02,3.45-0.03c1.05-0.05,2.4-0.14,4.06-0.26l0.4,7.73l-0.29-0.01l-1.65-5.66
		c-1.44-0.28-2.95-0.44-4.52-0.48c-1.35-0.03-2.58,0.02-3.7,0.14c-1.11,0.12-2.32,0.33-3.61,0.64c-0.15,1.47-0.28,2.9-0.37,4.27
		c-0.09,1.37-0.16,2.64-0.22,3.81c-0.05,1.17-0.09,1.96-0.09,2.39l-0.15,7.91c-0.04,2.08-0.01,4.41,0.08,6.99
		c0.09,2.58,0.23,4.65,0.4,6.19l5.87,1.01l-0.01,0.24l-17.98-0.39l0.01-0.24l5.8-0.76c0.56-3.5,0.89-7.74,0.99-12.73l0.17-8.62
		c0.03-1.78,0.03-3.53-0.02-5.27c-0.05-1.73-0.15-3.38-0.31-4.94c-0.92-0.27-1.98-0.5-3.2-0.68c-1.22-0.18-2.38-0.29-3.47-0.35
		c-1.73-0.04-3.44,0.07-5.13,0.32l-1.82,5.63l-0.33-0.01l0.68-7.8c0.48,0.04,1.17,0.13,2.07,0.27
		C232.03,288.44,232.77,288.51,233.36,288.53z M243.63,289.63l-0.64,33.06l1.6,0.03l0.64-33.06L243.63,289.63z"/>
	<path d="M280.8,324.43l-18.01-0.39l0.01-0.24l5.83-0.75c0.31-1.98,0.56-4.37,0.75-7.17c0.19-2.8,0.31-5.54,0.36-8.22l0.08-4
		c0.11-5.45-0.05-9.87-0.46-13.28l-5.89-0.96l0-0.24l18.01,0.39l0,0.24l-5.97,0.71c-0.2,1.54-0.36,2.93-0.46,4.17
		c-0.1,1.24-0.2,2.75-0.3,4.52c-0.1,1.77-0.16,3.43-0.19,4.99l-0.1,5.26c-0.02,0.97-0.01,2.55,0.02,4.75
		c0.03,2.2,0.09,4.06,0.18,5.59c0.09,1.53,0.18,2.67,0.28,3.44l5.89,0.96L280.8,324.43z M270.71,290.26l-0.64,33.01l1.67,0.04
		l0.64-33.01L270.71,290.26z"/>
	<path d="M299.16,324.59l-0.01,0.24l-17.84-0.38l0.01-0.24l5.42-0.62c0.22-1.31,0.41-2.9,0.57-4.75c0.16-1.85,0.3-3.65,0.4-5.4
		c0.11-1.74,0.17-3.33,0.2-4.76l0.13-6.72c0.04-1.89,0.01-3.92-0.08-6.09c-0.09-2.17-0.23-3.85-0.39-5.05l-5.58-1l0-0.24l17.89,0.39
		l0,0.24l-6.21,0.75c-0.18,1.14-0.34,2.67-0.49,4.59c-0.15,1.92-0.23,3.31-0.25,4.16l-0.12,6.14c1.09-0.72,2.33-1.66,3.7-2.82
		c1.37-1.15,2.92-2.51,4.63-4.06c3.48-3.18,6.06-5.75,7.75-7.7l-5.58-1l0-0.24l13.6,0.29l0,0.24l-4.71,0.73
		c-0.4,0.26-1.08,0.8-2.03,1.62c-0.95,0.82-2.1,1.84-3.44,3.05c-1.34,1.21-2.8,2.51-4.36,3.91c-1.57,1.4-2.76,2.44-3.56,3.14
		c0.91,1.61,2.31,3.57,4.2,5.88l5.14,6.57c3.04,3.81,5.67,6.7,7.89,8.65l4.37,0.93l-0.01,0.24l-16.67-0.36l0.01-0.24l4.54-0.74
		c-0.94-1.64-2.17-3.52-3.69-5.63c-1.53-2.11-3.14-4.23-4.86-6.36c-1.71-2.12-3.29-3.98-4.71-5.57l-2.3,2.05l-0.1,5.22
		c-0.02,0.92,0.01,2.55,0.09,4.87c0.08,2.33,0.2,4.03,0.35,5.09L299.16,324.59z M288.89,290.65l-0.64,33.06l1.71,0.04l0.64-33.06
		L288.89,290.65z M296.62,304.67l-1.09,1.05l14.58,18.47l2,0.04L296.62,304.67z"/>
	<path d="M342.33,290.38c3.38,0.07,6.3,0.7,8.76,1.88c2.46,1.18,4.46,2.7,6,4.56s2.66,3.83,3.36,5.9c0.7,2.07,1.03,4.05,0.99,5.94
		c-0.04,2.16-0.5,4.27-1.37,6.33c-0.87,2.06-2.14,3.94-3.8,5.62c-1.66,1.69-3.7,3.02-6.13,4c-2.43,0.98-5.12,1.44-8.07,1.38
		c-4.27-0.09-7.87-1.1-10.81-3.01c-2.94-1.91-5.08-4.25-6.44-7.01c-1.36-2.76-2.02-5.44-1.97-8.05c0.04-2.3,0.54-4.52,1.48-6.66
		c0.94-2.14,2.28-4.05,4.02-5.72c1.74-1.67,3.81-2.96,6.21-3.88C336.96,290.75,339.55,290.32,342.33,290.38z M341.34,291.29
		l0.01-0.24c-2.23-0.03-4.4,0.4-6.53,1.29c-2.13,0.89-4.01,2.12-5.65,3.69c-1.64,1.57-2.92,3.37-3.86,5.4
		c-0.94,2.03-1.43,4.17-1.47,6.42c-0.05,2.76,0.65,5.47,2.09,8.11c1.45,2.64,3.48,4.81,6.11,6.51c2.62,1.69,5.52,2.62,8.69,2.78
		l0.01-0.26c-3.08-0.34-5.78-1.36-8.11-3.06c-2.34-1.7-4.09-3.79-5.28-6.26c-1.18-2.47-1.75-5.02-1.7-7.64
		c0.04-2.16,0.44-4.22,1.19-6.19c0.75-1.97,1.82-3.72,3.2-5.24c1.38-1.53,3.04-2.75,4.97-3.68
		C336.93,291.99,339.05,291.44,341.34,291.29z M342.44,292.05c-2.46-0.05-4.75,0.54-6.86,1.78c-2.11,1.24-3.81,3.06-5.09,5.47
		c-1.28,2.4-1.95,5.26-2.01,8.56c-0.07,3.56,0.54,6.58,1.84,9.06c1.29,2.48,2.98,4.34,5.06,5.57c2.08,1.23,4.24,1.87,6.48,1.91
		c1.83,0.04,3.56-0.27,5.21-0.93c1.65-0.66,3.13-1.65,4.44-2.97c1.31-1.32,2.35-2.94,3.11-4.89c0.76-1.95,1.16-4.12,1.21-6.54
		c0.06-3.3-0.27-5.95-0.99-7.93c-0.73-1.99-1.81-3.73-3.26-5.24c-1.23-1.28-2.64-2.23-4.22-2.86
		C345.78,292.41,344.14,292.09,342.44,292.05z M343.68,291.1l-0.01,0.24c1.54,0.15,3.08,0.54,4.62,1.18
		c1.54,0.65,2.98,1.63,4.32,2.95c1.33,1.32,2.39,3.09,3.17,5.3c0.78,2.21,1.14,4.85,1.08,7.93c-0.04,2.02-0.32,3.94-0.84,5.77
		c-0.52,1.83-1.33,3.52-2.43,5.05c-1.1,1.53-2.53,2.79-4.28,3.77c-1.75,0.98-3.84,1.56-6.25,1.75l-0.01,0.26
		c2.03-0.05,3.97-0.45,5.81-1.19c1.84-0.74,3.49-1.82,4.94-3.24c1.45-1.42,2.6-3.17,3.47-5.25c0.87-2.08,1.32-4.4,1.37-6.98
		c0.05-2.81-0.33-5.3-1.14-7.47c-0.82-2.17-1.95-3.98-3.4-5.45c-1.45-1.46-3.07-2.58-4.86-3.35
		C347.47,291.62,345.61,291.19,343.68,291.1z"/>
</g>
</svg>
